<svg width="32" height="32" viewBox="0 0 32 32" fill="none" xmlns="http://www.w3.org/2000/svg">
<path fill-rule="evenodd" clip-rule="evenodd" d="M9.07874 12.9436C9.60136 9.52497 12.5417 7 16 7C19.4583 7 22.3986 9.52497 22.9213 12.9436L23.8535 19.0419C24.5114 19.2008 25 19.7934 25 20.5C25 21.3284 24.3284 22 23.5 22H8.5C7.67157 22 7 21.3284 7 20.5C7 19.7934 7.48864 19.2008 8.14647 19.0419L9.07874 12.9436ZM13.8118 23.892C13.7499 23.6418 13.9393 23.4 14.197 23.4H17.8046C18.0623 23.4 18.2517 23.6418 18.1898 23.892C17.9765 24.7546 17.0766 25.4 16.0008 25.4C14.925 25.4 14.0251 24.7546 13.8118 23.892Z" fill="#EFEFEF"/>
</svg>
