<svg width="32" height="32" viewBox="0 0 32 32" fill="none" xmlns="http://www.w3.org/2000/svg">
<path fill-rule="evenodd" clip-rule="evenodd" d="M7 23.9894C7.07624 25.1063 8.03984 25.9894 9.21736 25.9894H24.7729C26.0002 25.9894 26.9951 25.03 26.9951 23.8466V13.1323C26.9951 12.0211 26.1181 11.1075 24.9951 11V22.1376C24.9951 23.1607 24.0554 23.9894 22.8951 23.9894H7Z" fill="#E9ECEF"/>
<path d="M20 7L22 10.7037H19L17 7H15L17 10.7037H14L12 7H10L12 10.7037H9.00001L7 7H6.00001C4.89503 7 4.01003 7.82869 4.01003 8.85187L4 21.1481C4 22.1713 4.89498 23 6.00001 23H22C23.105 23 24 22.1713 24 21.1481V9.28624C24 8.02358 23.0051 7 21.7778 7H20Z" fill="#E9ECEF"/>
</svg>
