<svg width="32" height="32" viewBox="0 0 32 32" fill="none" xmlns="http://www.w3.org/2000/svg">
<path fill-rule="evenodd" clip-rule="evenodd" d="M24.6942 10.7887C25.5189 12.2676 26 13.9577 26 15.9296L25.9916 26H25.7251H21.6701H15.9656C14.11 26 12.3918 25.5775 10.8797 24.7324C9.3677 23.8873 8.19931 22.7606 7.30584 21.2113C6.4811 19.7324 6 17.9718 6 16.0704C6 14.169 6.41237 12.4789 7.23711 10.9296C8.13058 9.38028 9.29897 8.1831 10.811 7.33803C12.323 6.42254 14.0412 6 15.9656 6C17.89 6 19.6082 6.42254 21.1203 7.26761C22.6323 8.11268 23.8007 9.30986 24.6942 10.7887ZM12 17C12.5523 17 13 16.5523 13 16C13 15.4477 12.5523 15 12 15C11.4477 15 11 15.4477 11 16C11 16.5523 11.4477 17 12 17ZM16 17C16.5523 17 17 16.5523 17 16C17 15.4477 16.5523 15 16 15C15.4477 15 15 15.4477 15 16C15 16.5523 15.4477 17 16 17ZM21 16C21 16.5523 20.5523 17 20 17C19.4477 17 19 16.5523 19 16C19 15.4477 19.4477 15 20 15C20.5523 15 21 15.4477 21 16Z" fill="#868E96"/>
</svg>
