<svg xmlns="http://www.w3.org/2000/svg" width="32" height="32" fill="none" viewBox="0 0 32 32">
    <path fill="#efefef" fill-rule="evenodd" stroke="#efefef" stroke-linecap="round" stroke-linejoin="round" stroke-width=".5" d="M21.723 10.615c.37-.37.37-.969 0-1.338-.37-.37-.968-.37-1.338 0L15 14.662 9.615 9.277c-.37-.37-.969-.37-1.338 0-.37.37-.37.968 0 1.338L13.662 16l-5.385 5.385c-.37.37-.37.968 0 1.338.37.37.968.37 1.338 0L15 17.338l5.385 5.385c.37.37.968.37 1.338 0 .37-.37.37-.968 0-1.338L16.338 16l5.385-5.385z" clip-rule="evenodd"/>
</svg>
