<svg width="32" height="32" viewBox="0 0 32 32" fill="none" xmlns="http://www.w3.org/2000/svg">
<path fill-rule="evenodd" clip-rule="evenodd" d="M26 16C26 21.5228 21.5228 26 16 26C10.4772 26 6 21.5228 6 16C6 10.4772 10.4772 6 16 6C21.5228 6 26 10.4772 26 16ZM14.1132 13.0156L20.1339 10.5628C20.9537 10.2288 21.7713 11.0463 21.4373 11.8662L18.9844 17.8868C18.7812 18.3855 18.3855 18.7812 17.8868 18.9844L11.8661 21.4373C11.0463 21.7713 10.2287 20.9538 10.5627 20.1339L13.0156 14.1132C13.2188 13.6145 13.6145 13.2188 14.1132 13.0156ZM16 17.3333C15.2636 17.3333 14.6667 16.7364 14.6667 16C14.6667 15.2636 15.2636 14.6667 16 14.6667C16.7364 14.6667 17.3333 15.2636 17.3333 16C17.3333 16.7364 16.7364 17.3333 16 17.3333Z" fill="#868E96"/>
</svg>
