<svg width="54" height="18" viewBox="0 0 54 18" fill="none" xmlns="http://www.w3.org/2000/svg">
<rect width="54" height="18" rx="9" fill="#E9ECEF"/>
<path d="M6.21 12L7.72 4.86H11.8L11.51 6.24H9.12L8.78 7.86H11L10.7 9.25H8.47L7.9 12H6.21ZM13.8883 12.1C13.2216 12.1 12.6916 11.9167 12.2983 11.55C11.9116 11.1833 11.7183 10.65 11.7183 9.95C11.7183 9.49667 11.7816 9.06 11.9083 8.64C12.0416 8.21333 12.2349 7.83333 12.4883 7.5C12.7483 7.16667 13.0716 6.90333 13.4583 6.71C13.8516 6.51 14.3049 6.41 14.8183 6.41C15.4316 6.41 15.9016 6.55 16.2283 6.83C16.5616 7.11 16.7283 7.47333 16.7283 7.92C16.7283 8.51333 16.4783 8.99 15.9783 9.35C15.4783 9.70333 14.7049 9.88 13.6583 9.88H13.3983C13.3916 9.90667 13.3883 9.93333 13.3883 9.96C13.3883 9.98 13.3883 10.0033 13.3883 10.03C13.3883 10.2967 13.4649 10.5033 13.6183 10.65C13.7716 10.7967 13.9916 10.87 14.2783 10.87C14.5649 10.87 14.8283 10.8333 15.0683 10.76C15.3083 10.6867 15.5816 10.5767 15.8883 10.43V11.64C15.5949 11.7867 15.2949 11.9 14.9883 11.98C14.6883 12.06 14.3216 12.1 13.8883 12.1ZM13.7483 8.8C14.2483 8.8 14.6049 8.71667 14.8183 8.55C15.0316 8.38333 15.1383 8.19667 15.1383 7.99C15.1383 7.71 14.9849 7.57 14.6783 7.57C14.5116 7.57 14.3516 7.62667 14.1983 7.74C14.0449 7.85333 13.9116 8.00333 13.7983 8.19C13.6849 8.37667 13.6083 8.58 13.5683 8.8H13.7483ZM18.7421 12.1C18.4688 12.1 18.2121 12.0333 17.9721 11.9C17.7388 11.7667 17.5488 11.5533 17.4021 11.26C17.2621 10.96 17.1921 10.56 17.1921 10.06C17.1921 9.66667 17.2454 9.25667 17.3521 8.83C17.4588 8.40333 17.6188 8.00667 17.8321 7.64C18.0454 7.27333 18.3054 6.97667 18.6121 6.75C18.9254 6.52333 19.2821 6.41 19.6821 6.41C20.0154 6.41 20.2854 6.48333 20.4921 6.63C20.7054 6.77 20.8754 6.96 21.0021 7.2H21.0421L21.3121 6.51H22.6221L21.4521 12H20.1621L20.2221 11.34H20.1821C20.0154 11.5667 19.8154 11.75 19.5821 11.89C19.3554 12.03 19.0754 12.1 18.7421 12.1ZM19.4121 10.76C19.5854 10.76 19.7454 10.6867 19.8921 10.54C20.0454 10.3933 20.1754 10.2033 20.2821 9.97C20.3888 9.73667 20.4654 9.49 20.5121 9.23C20.5321 9.11 20.5454 8.99333 20.5521 8.88C20.5654 8.76 20.5721 8.63333 20.5721 8.5C20.5721 8.28 20.5221 8.1 20.4221 7.96C20.3288 7.82 20.1954 7.75 20.0221 7.75C19.8688 7.75 19.7221 7.81667 19.5821 7.95C19.4421 8.07667 19.3188 8.25 19.2121 8.47C19.1121 8.68333 19.0321 8.92 18.9721 9.18C18.9121 9.44 18.8821 9.70333 18.8821 9.97C18.8821 10.4967 19.0588 10.76 19.4121 10.76ZM24.5582 12.1C24.1049 12.1 23.7515 12.0033 23.4982 11.81C23.2449 11.6167 23.1182 11.2833 23.1182 10.81C23.1182 10.7033 23.1249 10.5867 23.1382 10.46C23.1582 10.3267 23.1782 10.2033 23.1982 10.09L23.6982 7.77H22.9482L23.1182 6.95L24.1182 6.53L24.7782 5.37H25.8682L25.6282 6.51H27.0282L26.7482 7.77H25.3582L24.8682 10.05C24.8549 10.1167 24.8415 10.1867 24.8282 10.26C24.8215 10.3267 24.8182 10.38 24.8182 10.42C24.8182 10.54 24.8515 10.6267 24.9182 10.68C24.9849 10.7333 25.0749 10.76 25.1882 10.76C25.3215 10.76 25.4549 10.7433 25.5882 10.71C25.7215 10.67 25.8682 10.62 26.0282 10.56V11.81C25.8482 11.8967 25.6349 11.9667 25.3882 12.02C25.1482 12.0733 24.8715 12.1 24.5582 12.1ZM28.6046 12.1C28.1113 12.1 27.7513 11.9533 27.5246 11.66C27.2979 11.36 27.1846 10.9833 27.1846 10.53C27.1846 10.2033 27.2246 9.84333 27.3046 9.45L27.9246 6.51H29.5846L28.9346 9.61C28.9146 9.71 28.8946 9.81667 28.8746 9.93C28.8613 10.0433 28.8546 10.15 28.8546 10.25C28.8546 10.4233 28.8946 10.5533 28.9746 10.64C29.0546 10.72 29.1646 10.76 29.3046 10.76C29.5646 10.76 29.7946 10.5967 29.9946 10.27C30.1946 9.94333 30.3546 9.51 30.4746 8.97L30.9946 6.51H32.6546L31.4946 12H30.1946L30.2746 11.1H30.2246C30.0313 11.42 29.8046 11.6667 29.5446 11.84C29.2846 12.0133 28.9713 12.1 28.6046 12.1ZM32.7477 12L33.9077 6.51H35.2077L35.1177 7.48H35.1577C35.3843 7.11333 35.631 6.84333 35.8977 6.67C36.1643 6.49667 36.4777 6.41 36.8377 6.41C36.9177 6.41 36.9977 6.41333 37.0777 6.42C37.1643 6.42667 37.231 6.43667 37.2777 6.45L36.9177 8.08C36.851 8.05333 36.771 8.03333 36.6777 8.02C36.5843 8 36.481 7.99 36.3677 7.99C36.041 7.99 35.7477 8.11333 35.4877 8.36C35.2343 8.60667 35.0477 9.00667 34.9277 9.56L34.4077 12H32.7477ZM39.0797 12.1C38.413 12.1 37.883 11.9167 37.4897 11.55C37.103 11.1833 36.9097 10.65 36.9097 9.95C36.9097 9.49667 36.973 9.06 37.0997 8.64C37.233 8.21333 37.4264 7.83333 37.6797 7.5C37.9397 7.16667 38.263 6.90333 38.6497 6.71C39.043 6.51 39.4964 6.41 40.0097 6.41C40.623 6.41 41.093 6.55 41.4197 6.83C41.753 7.11 41.9197 7.47333 41.9197 7.92C41.9197 8.51333 41.6697 8.99 41.1697 9.35C40.6697 9.70333 39.8964 9.88 38.8497 9.88H38.5897C38.583 9.90667 38.5797 9.93333 38.5797 9.96C38.5797 9.98 38.5797 10.0033 38.5797 10.03C38.5797 10.2967 38.6564 10.5033 38.8097 10.65C38.963 10.7967 39.183 10.87 39.4697 10.87C39.7564 10.87 40.0197 10.8333 40.2597 10.76C40.4997 10.6867 40.773 10.5767 41.0797 10.43V11.64C40.7864 11.7867 40.4864 11.9 40.1797 11.98C39.8797 12.06 39.513 12.1 39.0797 12.1ZM38.9397 8.8C39.4397 8.8 39.7964 8.71667 40.0097 8.55C40.223 8.38333 40.3297 8.19667 40.3297 7.99C40.3297 7.71 40.1764 7.57 39.8697 7.57C39.703 7.57 39.543 7.62667 39.3897 7.74C39.2364 7.85333 39.103 8.00333 38.9897 8.19C38.8764 8.37667 38.7997 8.58 38.7597 8.8H38.9397ZM43.9335 12.1C43.6602 12.1 43.4035 12.0333 43.1635 11.9C42.9302 11.7667 42.7402 11.5533 42.5935 11.26C42.4535 10.96 42.3835 10.5567 42.3835 10.05C42.3835 9.65667 42.4368 9.25 42.5435 8.83C42.6502 8.40333 42.8102 8.00667 43.0235 7.64C43.2368 7.27333 43.4968 6.97667 43.8035 6.75C44.1168 6.52333 44.4735 6.41 44.8735 6.41C45.1868 6.41 45.4302 6.48333 45.6035 6.63C45.7768 6.77 45.9335 6.95333 46.0735 7.18H46.1135C46.1135 7.15333 46.1168 7.07333 46.1235 6.94C46.1368 6.80667 46.1535 6.65667 46.1735 6.49C46.1935 6.32333 46.2168 6.16667 46.2435 6.02L46.5835 4.4H48.2535L46.6435 12H45.3435L45.4135 11.34H45.3735C45.2068 11.56 45.0135 11.7433 44.7935 11.89C44.5735 12.03 44.2868 12.1 43.9335 12.1ZM44.6235 10.76C44.8168 10.76 44.9835 10.6833 45.1235 10.53C45.2702 10.3767 45.3902 10.1833 45.4835 9.95C45.5768 9.71 45.6468 9.46333 45.6935 9.21C45.7402 8.95667 45.7635 8.73333 45.7635 8.54C45.7635 8.3 45.7168 8.11 45.6235 7.97C45.5302 7.82333 45.3968 7.75 45.2235 7.75C45.0635 7.75 44.9135 7.81667 44.7735 7.95C44.6402 8.07667 44.5202 8.25 44.4135 8.47C44.3068 8.68333 44.2235 8.92 44.1635 9.18C44.1035 9.44 44.0735 9.70333 44.0735 9.97C44.0735 10.4967 44.2568 10.76 44.6235 10.76Z" fill="#343A40"/>
</svg>
