<svg width="32" height="44" viewBox="0 0 32 44" fill="none" xmlns="http://www.w3.org/2000/svg">
<path d="M9.11492 20.1034L5.57227 10.506L5.85034 10.0194C6.63822 11.0158 8.78403 13.0087 11.0642 13.0087C13.3445 13.0087 15.2122 9.02293 15.861 7.03006H16.2781C16.8806 8.93024 18.6279 12.7862 20.7969 13.0087C22.9659 13.2311 25.2692 11.2475 26.1498 10.2279L26.4974 10.506L22.888 20.1096C22.7225 20.5501 22.2734 20.8161 21.8068 20.755C20.5024 20.5843 17.8709 20.2734 16.0001 20.2734C14.1317 20.2734 11.5044 20.5835 10.1983 20.7544C9.72953 20.8157 9.27863 20.5469 9.11492 20.1034Z" fill="url(#paint0_linear_894_1151)"/>
<ellipse cx="16" cy="6.54345" rx="1.66845" ry="1.66845" fill="url(#paint1_linear_894_1151)"/>
<ellipse cx="26.428" cy="9.60229" rx="1.39037" ry="1.39037" fill="url(#paint2_linear_894_1151)"/>
<circle cx="5.57226" cy="9.60229" r="1.39037" fill="url(#paint3_linear_894_1151)"/>
<path d="M16 42C23.1797 42 29 36.1797 29 29C29 21.8203 23.1797 16 16 16C8.8203 16 3 21.8203 3 29C3 36.1797 8.8203 42 16 42Z" fill="url(#paint4_linear_894_1151)"/>
<defs>
<linearGradient id="paint0_linear_894_1151" x1="16.0348" y1="7.03006" x2="16.0001" y2="26.7386" gradientUnits="userSpaceOnUse">
<stop stop-color="#FFFA9F"/>
<stop offset="0.261555" stop-color="#F4E185"/>
<stop offset="0.516371" stop-color="#CB9535"/>
<stop offset="0.831264" stop-color="#6F4014"/>
</linearGradient>
<linearGradient id="paint1_linear_894_1151" x1="16" y1="4.875" x2="16" y2="8.2119" gradientUnits="userSpaceOnUse">
<stop stop-color="#FFFA9F"/>
<stop offset="0.375" stop-color="#F4E185"/>
<stop offset="1" stop-color="#CB9535"/>
</linearGradient>
<linearGradient id="paint2_linear_894_1151" x1="26.428" y1="8.21191" x2="26.428" y2="10.9927" gradientUnits="userSpaceOnUse">
<stop stop-color="#FFFA9F"/>
<stop offset="0.375" stop-color="#F4E185"/>
<stop offset="1" stop-color="#CB9535"/>
</linearGradient>
<linearGradient id="paint3_linear_894_1151" x1="5.57226" y1="8.21191" x2="5.57226" y2="10.9927" gradientUnits="userSpaceOnUse">
<stop stop-color="#FFFA9F"/>
<stop offset="0.375" stop-color="#F4E185"/>
<stop offset="1" stop-color="#CB9535"/>
</linearGradient>
<linearGradient id="paint4_linear_894_1151" x1="2.02319" y1="7.58499" x2="2.02319" y2="33.5386" gradientUnits="userSpaceOnUse">
<stop stop-color="#8BFF75"/>
<stop offset="1" stop-color="#0CA678"/>
</linearGradient>
</defs>
</svg>
