<svg width="21" height="20" viewBox="0 0 21 20" fill="none" xmlns="http://www.w3.org/2000/svg">
<path fill-rule="evenodd" clip-rule="evenodd" d="M1.25709 12.6881C1.42613 12.8592 1.60119 13.0136 1.78227 13.1513C1.71599 13.4504 1.68185 13.7644 1.67984 14.0934C1.67515 14.858 1.84484 15.5416 2.18936 16.144C2.53377 16.7463 3.01482 17.2187 3.63286 17.5614C4.25078 17.904 4.94592 18.0778 5.71876 18.0826C5.95924 18.084 6.19216 18.0695 6.41752 18.0388C6.58222 18.2974 6.78031 18.5439 7.01175 18.7782C7.54904 19.3221 8.15243 19.6854 8.82192 19.8679C9.4914 20.0501 10.1656 20.044 10.845 19.8494C11.5241 19.6547 12.1385 19.2859 12.6883 18.743C12.8596 18.5739 13.0141 18.3987 13.1519 18.2175C13.4508 18.2837 13.7647 18.3178 14.0936 18.3198C14.8581 18.3245 15.5417 18.1548 16.1441 17.8103C16.7464 17.4659 17.2188 16.9848 17.5616 16.3668C17.9041 15.7489 18.0779 15.0537 18.0827 14.2809C18.0842 14.0407 18.0696 13.8081 18.039 13.5831C18.298 13.4182 18.5447 13.2199 18.7793 12.9882C19.3233 12.4509 19.6866 11.8476 19.869 11.1781C20.0513 10.5086 20.0452 9.83442 19.8505 9.15497C19.6559 8.47588 19.2871 7.86148 18.7442 7.31164C18.575 7.1404 18.3999 6.98591 18.2187 6.84814C18.2849 6.54908 18.3191 6.23503 18.3211 5.90601C18.3259 5.14149 18.1561 4.45783 17.8116 3.85549C17.4672 3.25316 16.9861 2.78078 16.3681 2.43801C15.7503 2.09548 15.055 1.92169 14.2823 1.91689C14.0413 1.91541 13.808 1.93006 13.5822 1.96083C13.4176 1.7024 13.2196 1.4561 12.9883 1.22193C12.451 0.677953 11.8476 0.314677 11.1781 0.132219C10.5086 -0.0500049 9.83443 -0.0439112 9.15499 0.150734C8.4759 0.34538 7.86149 0.714164 7.31166 1.25709C7.14053 1.42612 6.98614 1.60116 6.84845 1.78222C6.54937 1.71593 6.23529 1.68178 5.90624 1.67977C5.14172 1.67496 4.45806 1.84476 3.85572 2.18929C3.25339 2.5337 2.78101 3.01475 2.43824 3.63278C2.09571 4.25059 1.92192 4.94585 1.91712 5.71857C1.91564 5.95913 1.93024 6.19209 1.9609 6.4175C1.70244 6.58214 1.45612 6.78015 1.22193 7.01152C0.677953 7.54881 0.314677 8.1522 0.132219 8.82169C-0.0500049 9.49117 -0.0439112 10.1653 0.150734 10.8448C0.34538 11.5239 0.714164 12.1383 1.25709 12.6881Z" fill="#4263EB"/>
<path fill-rule="evenodd" clip-rule="evenodd" d="M10.2832 7.50259L10.2833 7.50725H10.2786L10.2629 10.0207L10.3522 10.0212L11.4115 10.0276L12.9047 10.0367V10.0362C13.3947 10.0369 13.8375 9.93293 14.2329 9.72325C14.6327 9.5112 14.9457 9.2144 15.1719 8.83279C15.3981 8.45141 15.5127 8.01862 15.5157 7.53449C15.5187 7.0506 15.4097 6.61797 15.1882 6.23667C14.9668 5.85553 14.6576 5.55653 14.2604 5.33958C13.8633 5.12279 13.4164 5.01277 12.9198 5.00977C12.4171 5.00669 11.9659 5.11118 11.566 5.32323C11.1662 5.53528 10.8532 5.83049 10.6269 6.20895C10.4009 6.58749 10.2863 7.0187 10.2832 7.50259ZM10.2423 12.5361L10.2422 12.5315H10.2469L10.2626 10.018L10.1733 10.0175L9.11402 10.0111L7.62082 10.002V10.0025C7.13078 10.0019 6.68798 10.1058 6.29266 10.3155C5.89278 10.5275 5.57983 10.8243 5.35357 11.2059C5.1274 11.5873 5.01279 12.0201 5.00983 12.5042C5.00678 12.9881 5.11585 13.4207 5.33729 13.802C5.55873 14.1832 5.86791 14.4822 6.26516 14.6991C6.66224 14.9159 7.10913 15.0259 7.60574 15.0289C8.10845 15.032 8.55967 14.9275 8.95955 14.7155C9.35936 14.5034 9.67231 14.2082 9.89864 13.8298C10.1246 13.4512 10.2393 13.02 10.2423 12.5361Z" fill="white"/>
</svg>
