<svg width="32" height="32" viewBox="0 0 32 32" fill="none" xmlns="http://www.w3.org/2000/svg">
<path d="M24.861 10.9822C24.6586 10.5146 24.2536 10.1537 23.7506 9.99184L23.1533 9.7997L23.1964 9.1985C23.2326 8.69203 23.0387 8.19614 22.6645 7.8383C22.2904 7.48047 21.7721 7.29525 21.2423 7.32981L20.6137 7.37088L20.4131 6.79976C20.2438 6.31851 19.8663 5.9314 19.3773 5.73763C18.8886 5.54408 18.3355 5.56237 17.8599 5.78826L17.2957 6.05644L16.8816 5.60222C16.5327 5.21958 16.0291 5 15.5 5C14.9709 5 14.4673 5.21958 14.1182 5.60222L13.7043 6.05644L13.1399 5.78826C12.6645 5.56258 12.1114 5.54408 11.6225 5.73763C11.1335 5.9314 10.7562 6.31851 10.587 6.79976L10.3861 7.37088L9.75745 7.32981C9.22832 7.29525 8.70961 7.48047 8.33546 7.8383C7.9611 8.19614 7.76744 8.69203 7.80358 9.1985L7.84673 9.7997L7.24937 9.99184C6.74618 10.1537 6.34142 10.5146 6.13882 10.9822C6.05339 11.1797 6.00756 11.3882 6.00086 11.5973C5.99329 11.8334 6.20558 12 6.44183 12H24.5582C24.7944 12 25.0067 11.8334 24.9991 11.5973C24.9924 11.3882 24.9465 11.1797 24.861 10.9822Z" fill="#868E96"/>
<path fill-rule="evenodd" clip-rule="evenodd" d="M6.62704 13C6.30597 13 6.06811 13.2983 6.13959 13.6113L8.79122 25.2226C8.89508 25.6774 9.29961 26 9.76612 26H21.2339C21.7004 26 22.1049 25.6774 22.2088 25.2226L24.8604 13.6113C24.9319 13.2983 24.694 13 24.3729 13H6.62704ZM17.3697 16.6304C17.2337 16.0485 16.6289 15.0151 15.2201 15C13.8084 15 13.1522 16.079 13.0175 16.6532C12.9359 17.0001 13.1475 17.3483 13.4905 17.4305C13.8309 17.5131 14.1764 17.2988 14.258 16.9515C14.2602 16.9441 14.2624 16.9368 14.2646 16.9294C14.3524 16.6356 14.4554 16.2912 15.207 16.2912C15.9235 16.299 16.1147 16.8624 16.1483 17.0027C16.1653 17.0616 16.2936 17.5984 15.5818 18.1846C14.8449 18.791 14.6477 18.9571 14.6477 18.9571C14.5015 19.0798 14.4169 19.2619 14.4169 19.4538V20.2053C14.4169 20.5621 14.7021 20.8509 15.0544 20.8509C15.4063 20.8509 15.6919 20.5621 15.6919 20.2053V19.7594C15.8347 19.6411 16.0557 19.4586 16.3863 19.1865C17.5074 18.2633 17.5367 17.1675 17.3697 16.6304ZM15.136 21.6158C14.7692 21.6158 14.4522 21.9369 14.4522 22.3079C14.4522 22.6789 14.7692 23 15.136 23C15.5019 23 15.8194 22.6789 15.8194 22.3079C15.8194 21.9369 15.5019 21.6158 15.136 21.6158Z" fill="#868E96"/>
</svg>
