<svg width="11" height="16" viewBox="0 0 11 16" fill="none" xmlns="http://www.w3.org/2000/svg">
<path d="M3.92 15.2C3.18667 15.2 2.48667 15.1333 1.82 15C1.15333 14.8667 0.593333 14.6733 0.14 14.42V11.52C0.7 11.8533 1.29333 12.1 1.92 12.26C2.56 12.42 3.18667 12.5 3.8 12.5C4.66667 12.5 5.37333 12.34 5.92 12.02C6.48 11.6867 6.76 11.16 6.76 10.44C6.76 10.1333 6.68667 9.86667 6.54 9.64C6.39333 9.41333 6.13333 9.24 5.76 9.12C5.38667 8.98667 4.84667 8.92 4.14 8.92H3.04L3.52 6.46H4.26C4.84667 6.46 5.38667 6.39333 5.88 6.26C6.38667 6.11333 6.78667 5.89333 7.08 5.6C7.38667 5.29333 7.54 4.90667 7.54 4.44C7.54 4.12 7.42667 3.84 7.2 3.6C6.97333 3.36 6.6 3.24 6.08 3.24C5.56 3.24 5.07333 3.33333 4.62 3.52C4.16667 3.70667 3.74667 3.91333 3.36 4.14L1.98 1.94C2.63333 1.51333 3.32 1.17333 4.04 0.919999C4.77333 0.653332 5.68 0.519999 6.76 0.519999C8.05333 0.519999 9.06 0.826666 9.78 1.44C10.5133 2.05333 10.88 2.85333 10.88 3.84C10.88 4.85333 10.5733 5.68667 9.96 6.34C9.34667 6.98 8.51333 7.4 7.46 7.6V7.68C8.26 7.82667 8.9 8.16667 9.38 8.7C9.86 9.22 10.1 9.9 10.1 10.74C10.1 11.62 9.85333 12.4 9.36 13.08C8.86667 13.7467 8.15333 14.2667 7.22 14.64C6.3 15.0133 5.2 15.2 3.92 15.2Z" fill="white"/>
</svg>
