<svg width="12" height="15" viewBox="0 0 12 15" fill="none" xmlns="http://www.w3.org/2000/svg">
<path d="M0.48 15L0.94 12.72L5.64 8.54C6.70667 7.59333 7.43333 6.82 7.82 6.22C8.22 5.62 8.42 5.08667 8.42 4.62C8.42 4.20667 8.30667 3.9 8.08 3.7C7.86667 3.48667 7.58 3.38 7.22 3.38C6.76667 3.38 6.31333 3.5 5.86 3.74C5.40667 3.98 4.9 4.34667 4.34 4.84L2.72 2.6C3.41333 1.98667 4.17333 1.48667 5 1.1C5.82667 0.713332 6.76 0.519999 7.8 0.519999C8.66667 0.519999 9.39333 0.679999 9.98 0.999999C10.58 1.30667 11.0333 1.72667 11.34 2.26C11.6467 2.79333 11.8 3.39333 11.8 4.06C11.8 4.79333 11.6467 5.48 11.34 6.12C11.0467 6.76 10.6067 7.4 10.02 8.04C9.43333 8.66667 8.69333 9.35333 7.8 10.1L5.48 12.06V12.16H10.66L10.08 15H0.48Z" fill="white"/>
</svg>
