<svg width="51" height="32" viewBox="0 0 51 32" fill="none" xmlns="http://www.w3.org/2000/svg">
<path d="M8.796 19.652C8.796 18.416 7.44 17.612 5.088 17.612C2.724 17.612 1.356 18.416 1.356 19.652C1.356 20.888 2.724 21.692 5.088 21.692C7.44 21.692 8.796 20.888 8.796 19.652ZM10.02 16.796V15.68H5.424V13.82H4.02V15.68H0.360001V16.796H10.02ZM8.772 11.384H1.464V12.488H7.368C7.368 13.616 7.26 14.252 7.08 14.972C7.536 15.02 7.992 15.092 8.436 15.152C8.628 14.276 8.772 13.376 8.772 11.384ZM7.368 19.664C7.368 20.264 6.48 20.576 5.088 20.576C3.684 20.576 2.808 20.264 2.808 19.664C2.808 19.04 3.684 18.74 5.088 18.74C6.48 18.74 7.368 19.04 7.368 19.664Z" fill="white"/>
<path d="M19.6508 21.692V11H18.3188V15.188H17.3708V11.192H16.0628V21.2H17.3708V16.304H18.3188V21.692H19.6508ZM15.0908 12.26H10.9508V13.388H13.7348C13.5548 15.512 12.3908 17.384 10.3028 18.632L11.2148 19.604C13.8308 17.888 15.1028 15.452 15.0908 12.26Z" fill="white"/>
<path d="M26.3776 17.84V21.2H27.6856V11.204H26.3776V13.364H25.0936C24.7456 12.452 24.1096 11.804 23.1376 11.804C21.4816 11.804 20.8336 13.676 20.8336 15.62C20.8336 17.588 21.4816 19.472 23.1376 19.472C24.1336 19.472 24.7696 18.8 25.1176 17.84H26.3776ZM29.8216 21.692V11H28.4896V21.692H29.8216ZM24.1576 15.632C24.1576 17.06 23.8696 18.224 23.1496 18.224C22.4536 18.224 22.1536 17.06 22.1536 15.632C22.1536 14.204 22.4536 13.028 23.1496 13.028C23.8696 13.028 24.1576 14.204 24.1576 15.632ZM25.4656 15.632C25.4656 15.248 25.4416 14.864 25.3816 14.492H26.3776V16.712H25.3816C25.4416 16.364 25.4656 16.004 25.4656 15.632Z" fill="white"/>
<path d="M39.8244 19.556C39.8244 18.224 38.4444 17.408 36.0804 17.408C33.7164 17.408 32.3364 18.224 32.3364 19.556C32.3364 20.852 33.7164 21.668 36.0804 21.668C38.4444 21.668 39.8244 20.852 39.8244 19.556ZM31.2804 12.908H33.4044C33.3204 14.432 32.3364 15.56 30.8364 16.1C31.1244 16.46 31.3884 16.82 31.6764 17.192C32.7084 16.832 33.8364 15.824 34.1604 14.792C34.6164 15.764 35.6604 16.568 36.4764 16.88C36.7284 16.508 36.9924 16.148 37.2324 15.776C36.0684 15.392 34.9884 14.396 34.8804 12.908H36.9084V11.756H31.2804V12.908ZM36.7404 14.684H38.3484V17.36H39.7524V11H38.3484V13.556H36.7404V14.684ZM36.0804 18.536C37.5564 18.536 38.3964 18.908 38.3964 19.556C38.3964 20.18 37.5564 20.552 36.0804 20.552C34.6284 20.552 33.7764 20.18 33.7764 19.556C33.7764 18.908 34.6284 18.536 36.0804 18.536Z" fill="white"/>
<path d="M41.2233 12.824H43.3713C43.2993 14.372 42.2912 15.524 40.8032 16.064L41.6313 17.156C42.6633 16.808 43.7913 15.788 44.1033 14.756C44.5713 15.74 45.6033 16.544 46.4313 16.868L47.1992 15.752C46.0112 15.368 44.9313 14.348 44.8113 12.824H46.8512V11.684H41.2233V12.824ZM42.4352 17.768V18.884H48.0513V21.704H49.4673V17.768H42.4352ZM50.9793 14.684V13.532H49.4552V11H48.0392V17.228H49.4552V14.684H50.9793Z" fill="white"/>
</svg>
