<svg width="32" height="32" viewBox="0 0 32 32" fill="none" xmlns="http://www.w3.org/2000/svg">
<path fill-rule="evenodd" clip-rule="evenodd" d="M13.8819 5.33325C9.1606 5.33325 5.33325 9.1606 5.33325 13.8819C5.33325 18.6032 9.1606 22.4305 13.8819 22.4305C15.776 22.4305 17.5271 21.814 18.9443 20.771L23.1281 24.9549C23.6326 25.4594 24.4505 25.4594 24.9549 24.9549C25.4594 24.4505 25.4594 23.6326 24.9549 23.1281L20.771 18.9443C21.814 17.5271 22.4305 15.776 22.4305 13.8819C22.4305 9.1606 18.6032 5.33325 13.8819 5.33325ZM7.91671 13.8819C7.91671 10.5874 10.5874 7.91671 13.8819 7.91671C17.1764 7.91671 19.847 10.5874 19.847 13.8819C19.847 15.4938 19.2082 16.9558 18.169 18.0296C18.1442 18.0509 18.1201 18.0733 18.0967 18.0967C18.0733 18.1201 18.0509 18.1442 18.0296 18.169C16.9558 19.2082 15.4938 19.847 13.8819 19.847C10.5874 19.847 7.91671 17.1764 7.91671 13.8819Z" fill="#868E96"/>
</svg>
