<svg width="258" height="52" fill="none" xmlns="http://www.w3.org/2000/svg"><path fill-rule="evenodd" clip-rule="evenodd" d="M153.483 6.552a3.274 3.274 0 1 1 3.638 5.444 3.274 3.274 0 0 1-3.638-5.444zm54.768 8.092c-1.205-.434-2.446-.524-3.765-.524a11.784 11.784 0 0 0-4.388.754 9.21 9.21 0 0 0-3.275 2.16V6.426h-5.37v30.453h5.436V25.712a7.067 7.067 0 0 1 1.735-5.174 5.997 5.997 0 0 1 2.144-1.413c.808-.311 1.435-.387 2.539-.387.802 0 1.496.056 2.194.327a4.84 4.84 0 0 1 1.833 1.211c1.036 1.282 1.441 2.896 1.441 4.552v12.083h5.37v-12.77c0-1.453-.08-2.772-.53-4.083a10.285 10.285 0 0 0-2.089-3.547c-1.026-1.011-2.075-1.457-3.275-1.867zm13.72-8.12h5.403l-.032 7.597h5.403v4.847h-5.403l-.033 18.01-5.37-.033.032-17.977-5.403-.033.033-4.814h5.37V6.524zM97.309 13.958c-1.6-.04-3.191.238-4.682.818a8.186 8.186 0 0 0-3.275 2.39v-3.012h-5.436v23.151h5.534V25.582a7.172 7.172 0 0 1 .36-2.75c.3-.886.78-1.7 1.409-2.39a6.548 6.548 0 0 1 2.194-1.376 6.874 6.874 0 0 1 2.554-.426c.775 0 1.541.078 2.259.36.704.266 1.35.666 1.899 1.18a6.352 6.352 0 0 1 1.539 4.518v12.607h5.534V23.834c.001-1.448.001-2.59-.42-3.823a9.013 9.013 0 0 0-2.092-3.395c-.943-.962-1.921-1.656-3.186-2.116-1.265-.46-2.5-.5-4.125-.542h-.066zM162.978 41.3c.257.997.63 1.965 1.115 2.882a11.059 11.059 0 0 0 4.224 4.29 13.097 13.097 0 0 0 12.279 0 11.059 11.059 0 0 0 4.224-4.29c.484-.917.858-1.885 1.115-2.882h-5.47a8.395 8.395 0 0 1-1.211 1.998 6.162 6.162 0 0 1-2.162 1.506 7.138 7.138 0 0 1-5.206 0 5.865 5.865 0 0 1-2.161-1.506 8.4 8.4 0 0 1-1.212-1.998h-5.535zM73.995 14.12h5.698v22.855h-5.698V14.12zm83.959 0h-5.698v22.855h5.698V14.12zM50.353 20.18 61.879 6.523h7.04L57.917 19.852l11.788 17.126h-7.597l-8.776-12.935-2.98 3.635v9.3H44V6.524h6.353V20.18zm197.322 3.6-2.717-.557c-2.62-.557-3.701-1.343-3.701-2.718s1.572-2.816 3.897-2.816c.955 0 1.884.117 2.654.663a3.769 3.769 0 0 1 1.505 2.284h4.42c-.163-3.83-3.667-6.549-8.612-6.549-4.944 0-8.579 2.685-8.579 6.746 0 3.274 2.03 5.337 6.091 6.188l2.947.59c2.75.59 3.864 1.44 3.864 2.849 0 1.408-1.736 2.881-4.159 2.881s-4.486-1.146-4.715-2.947h-4.519c.164 3.995 3.635 6.55 8.972 6.55 5.338 0 9.103-2.686 9.103-7.008 0-3.34-1.899-5.207-6.451-6.156zM146.46 6.524h-5.567v30.454h5.567V6.524zm-71.24.028a3.274 3.274 0 1 1 3.638 5.445 3.274 3.274 0 0 1-3.638-5.445zm100.292 6.628c2.4.02 7.674-.193 10.159-2.33l.786 4.814-3.64.666a10.986 10.986 0 0 1 2.036 2.637 13.452 13.452 0 0 1 0 12.378 11.394 11.394 0 0 1-4.256 4.29 13.099 13.099 0 0 1-12.28 0 11.072 11.072 0 0 1-4.224-4.29 13.102 13.102 0 0 1 0-12.378 10.777 10.777 0 0 1 4.224-4.257 12.837 12.837 0 0 1 7.195-1.53zm-51.842-.009a12.212 12.212 0 0 1 6.156 1.572 10.842 10.842 0 0 1 4.192 4.224 13.299 13.299 0 0 1 0 12.41 11.072 11.072 0 0 1-4.224 4.29 13.1 13.1 0 0 1-12.28 0 11.072 11.072 0 0 1-4.224-4.29 13.3 13.3 0 0 1 0-12.41 10.9 10.9 0 0 1 4.224-4.224c1.873-1.069 4-1.611 6.156-1.572zM126.29 32a6.159 6.159 0 0 0 2.161-1.507 7.594 7.594 0 0 0 1.899-5.337 7.43 7.43 0 0 0-1.899-5.272 6.224 6.224 0 0 0-2.161-1.54 7.14 7.14 0 0 0-5.207 0 5.603 5.603 0 0 0-2.161 1.54 7.305 7.305 0 0 0-1.899 5.272 7.464 7.464 0 0 0 1.899 5.337A5.865 5.865 0 0 0 121.083 32a7.14 7.14 0 0 0 5.207 0zm50.803-.033a6.158 6.158 0 0 0 2.161-1.506 8.347 8.347 0 0 0 0-10.61 6.547 6.547 0 0 0-2.161-1.539 6.548 6.548 0 0 0-2.62-.491 5.863 5.863 0 0 0-2.587.491c-.82.355-1.557.88-2.161 1.539a8.352 8.352 0 0 0 0 10.61A6.357 6.357 0 0 0 171.886 32a6.98 6.98 0 0 0 2.587.49 6.55 6.55 0 0 0 2.62-.523z" fill="#fff"/><g clip-path="url(#a)" fill-rule="evenodd" clip-rule="evenodd"><path d="M20 13.538a8.737 8.737 0 0 1 1.226-4.424c.762-1.274 1.816-2.268 3.163-2.982 1.347-.713 2.867-1.065 4.56-1.055 1.672.01 3.177.38 4.515 1.11 1.338.73 2.38 1.737 3.125 3.02.746 1.284 1.113 2.74 1.103 4.37-.01 1.63-.396 3.086-1.158 4.37a7.904 7.904 0 0 1-3.163 2.998c-1.331.706-2.823 1.055-4.473 1.053V22H20v-8.462z" fill="#0CA678"/><path d="M20 30.462a8.737 8.737 0 0 1-1.226 4.424c-.762 1.274-1.816 2.268-3.163 2.982-1.347.713-2.867 1.065-4.56 1.055-1.672-.01-3.178-.38-4.515-1.11-1.338-.73-2.38-1.737-3.125-3.02-.746-1.284-1.113-2.74-1.103-4.37.01-1.63.396-3.086 1.158-4.37a7.904 7.904 0 0 1 3.163-2.998C7.96 22.35 9.452 22 11.102 22.002V22H20v8.462z" fill="#F03E3E"/></g><defs><clipPath id="a"><path fill="#fff" transform="translate(0 2)" d="M0 0h40v40H0z"/></clipPath></defs></svg>